<svg xmlns="http://www.w3.org/2000/svg" version="1.1" xmlns:xlink="http://www.w3.org/1999/xlink" xmlns:svgjs="http://svgjs.com/svgjs" width="1440" height="560" preserveAspectRatio="none" viewBox="0 0 1440 560"><g mask="url(&quot;#SvgjsMask1030&quot;)" fill="none"><rect width="1440" height="560" x="0" y="0" fill="rgba(0, 230, 198, 1)"></rect><path d="M586.59 349.66 a125.38 125.38 0 1 0 250.76 0 a125.38 125.38 0 1 0 -250.76 0z" fill="rgba(255, 255, 255, 0.67)" class="triangle-float2"></path><path d="M511.22 416.74 a140.07 140.07 0 1 0 280.14 0 a140.07 140.07 0 1 0 -280.14 0z" fill="rgba(255, 255, 255, 0.67)" class="triangle-float2"></path><path d="M1004.282,531.594C1037.761,531.18,1062.05,503.263,1078.136,473.898C1093.462,445.921,1101.218,412.118,1084.667,384.848C1068.585,358.351,1035.275,351.852,1004.282,352.214C974.08,352.567,943.076,361.065,927.088,386.69C910.243,413.689,912.235,447.677,927.197,475.763C943.185,505.774,970.281,532.014,1004.282,531.594" fill="rgba(255, 255, 255, 0.67)" class="triangle-float3"></path><path d="M552.3 194.37 a155 155 0 1 0 310 0 a155 155 0 1 0 -310 0z" fill="rgba(255, 255, 255, 0.67)" class="triangle-float2"></path><path d="M1249.018,472.581C1290.619,473.075,1328.652,449.253,1349.078,413.008C1369.14,377.408,1369.827,332.566,1347.037,298.647C1326.329,267.827,1286.147,263.728,1249.018,264.091C1212.751,264.446,1174.14,270.195,1154.266,300.534C1132.701,333.454,1134.005,376.208,1152.99,410.68C1172.681,446.434,1208.203,472.096,1249.018,472.581" fill="rgba(255, 255, 255, 0.67)" class="triangle-float1"></path><path d="M-79.21 491.77 a184.67 184.67 0 1 0 369.34 0 a184.67 184.67 0 1 0 -369.34 0z" fill="rgba(255, 255, 255, 0.67)" class="triangle-float1"></path><path d="M635.56 519.21 a109.23 109.23 0 1 0 218.46 0 a109.23 109.23 0 1 0 -218.46 0z" fill="rgba(255, 255, 255, 0.67)" class="triangle-float1"></path><path d="M-51.31 21.86 a132.06 132.06 0 1 0 264.12 0 a132.06 132.06 0 1 0 -264.12 0z" fill="rgba(255, 255, 255, 0.67)" class="triangle-float1"></path><path d="M1061.233,376.759C1108.371,377.008,1147.848,345.028,1171.449,304.223C1195.085,263.356,1202.343,213.625,1179.472,172.325C1155.939,129.831,1109.795,104.076,1061.233,105.2C1014.462,106.283,974.56,136.543,952.111,177.589C930.599,216.922,931.474,263.753,953.015,303.07C975.49,344.092,1014.459,376.512,1061.233,376.759" fill="rgba(255, 255, 255, 0.67)" class="triangle-float1"></path><path d="M988.92 180.43 a111.17 111.17 0 1 0 222.34 0 a111.17 111.17 0 1 0 -222.34 0z" fill="rgba(255, 255, 255, 0.67)" class="triangle-float3"></path><path d="M171.745,183.157C189.616,184.298,207.211,173.805,214.873,157.62C221.761,143.07,212.988,127.491,204.604,113.748C196.711,100.81,186.898,87.171,171.745,86.922C156.293,86.669,144.152,98.958,136.964,112.639C130.313,125.297,130.882,139.836,137.207,152.66C144.488,167.423,155.317,182.108,171.745,183.157" fill="rgba(255, 255, 255, 0.67)" class="triangle-float2"></path><path d="M1123 250.73 a115.75 115.75 0 1 0 231.5 0 a115.75 115.75 0 1 0 -231.5 0z" fill="rgba(255, 255, 255, 0.67)" class="triangle-float3"></path><path d="M291.68 376.04 a128.53 128.53 0 1 0 257.06 0 a128.53 128.53 0 1 0 -257.06 0z" fill="rgba(255, 255, 255, 0.67)" class="triangle-float1"></path><path d="M695.57 285.03 a162.42 162.42 0 1 0 324.84 0 a162.42 162.42 0 1 0 -324.84 0z" fill="rgba(255, 255, 255, 0.67)" class="triangle-float1"></path><path d="M216.721,339.071C235.888,340.45,255.942,332.708,265.265,315.904C274.38,299.475,268.575,279.616,258.51,263.751C249.252,249.158,233.997,239.834,216.721,239.384C198.581,238.912,179.575,245.487,170.985,261.471C162.72,276.851,170.072,294.65,178.937,309.692C187.619,324.423,199.666,337.844,216.721,339.071" fill="rgba(255, 255, 255, 0.67)" class="triangle-float3"></path><path d="M886.971,399.084C927.5,399.111,961.228,370.843,980.832,335.37C999.746,301.145,1000.375,260.794,982.662,225.932C962.957,187.148,930.451,149.219,886.971,150.63C844.869,151.996,820.521,194.245,801.466,231.813C784.699,264.87,776.459,302.239,793.33,335.243C811.759,371.296,846.481,399.057,886.971,399.084" fill="rgba(255, 255, 255, 0.67)" class="triangle-float1"></path><path d="M109.58 208.92 a184.66 184.66 0 1 0 369.32 0 a184.66 184.66 0 1 0 -369.32 0z" fill="rgba(255, 255, 255, 0.67)" class="triangle-float2"></path><path d="M1110.77 372.64 a134.91 134.91 0 1 0 269.82 0 a134.91 134.91 0 1 0 -269.82 0z" fill="rgba(255, 255, 255, 0.67)" class="triangle-float3"></path></g><defs><mask id="SvgjsMask1030"><rect width="1440" height="560" fill="#ffffff"></rect></mask><style>
            @keyframes float1 {
                0%{transform: translate(0, 0)}
                50%{transform: translate(-10px, 0)}
                100%{transform: translate(0, 0)}
            }

            .triangle-float1 {
                animation: float1 5s infinite;
            }

            @keyframes float2 {
                0%{transform: translate(0, 0)}
                50%{transform: translate(-5px, -5px)}
                100%{transform: translate(0, 0)}
            }

            .triangle-float2 {
                animation: float2 4s infinite;
            }

            @keyframes float3 {
                0%{transform: translate(0, 0)}
                50%{transform: translate(0, -10px)}
                100%{transform: translate(0, 0)}
            }

            .triangle-float3 {
                animation: float3 6s infinite;
            }
        </style></defs></svg>