<svg xmlns="http://www.w3.org/2000/svg" version="1.1" xmlns:xlink="http://www.w3.org/1999/xlink" xmlns:svgjs="http://svgjs.com/svgjs" width="1440" height="560" preserveAspectRatio="none" viewBox="0 0 1440 560"><g mask="url(&quot;#SvgjsMask1020&quot;)" fill="none"><rect width="1440" height="560" x="0" y="0" fill="rgba(0, 230, 198, 1)"></rect><path d="M1063.993,192.69C1091.384,193.407,1112.809,171.709,1126.166,147.785C1139.134,124.558,1144,96.415,1130.564,73.455C1117.243,50.691,1090.359,42.222,1063.993,41.542C1036.095,40.822,1004.655,45.413,991.195,69.86C978.011,93.805,993.275,121.159,1007.211,144.673C1020.756,167.528,1037.435,191.995,1063.993,192.69" fill="rgba(255, 255, 255, 0.67)" class="triangle-float3"></path><path d="M987.85,643.834C1019.489,643.399,1053.93,638.422,1070.223,611.297C1086.872,583.58,1078.004,549.021,1061.502,521.216C1045.401,494.087,1019.396,472.734,987.85,472.506C955.952,472.275,928.983,492.931,912.327,520.136C894.771,548.812,883.936,584.921,901.457,613.618C918.496,641.527,955.154,644.284,987.85,643.834" fill="rgba(255, 255, 255, 0.67)" class="triangle-float1"></path><path d="M530.47 223.14 a97.39 97.39 0 1 0 194.78 0 a97.39 97.39 0 1 0 -194.78 0z" fill="rgba(255, 255, 255, 0.67)" class="triangle-float2"></path><path d="M1134.674,544.158C1155.914,542.995,1176.612,534.503,1187.147,516.023C1197.592,497.701,1193.621,475.991,1184.328,457.059C1173.463,434.925,1159.321,409.822,1134.674,409.125C1109.363,408.409,1092.281,432.017,1079.902,454.105C1067.882,475.552,1058.429,501.365,1071.205,522.371C1083.663,542.854,1110.736,545.469,1134.674,544.158" fill="rgba(255, 255, 255, 0.67)" class="triangle-float1"></path><path d="M794.67 126.75 a94.42 94.42 0 1 0 188.84 0 a94.42 94.42 0 1 0 -188.84 0z" fill="rgba(255, 255, 255, 0.67)" class="triangle-float1"></path><path d="M757.919,337.387C791.901,338.784,822.935,318.651,840.061,289.267C857.313,259.667,858.507,223.325,841.849,193.386C824.721,162.603,793.145,141.364,757.919,141.637C723.119,141.907,691.875,163.592,676.213,194.67C661.917,223.037,670.914,255.395,686.697,282.963C702.608,310.755,725.922,336.072,757.919,337.387" fill="rgba(255, 255, 255, 0.67)" class="triangle-float1"></path><path d="M975.32 284.99 a175.71 175.71 0 1 0 351.42 0 a175.71 175.71 0 1 0 -351.42 0z" fill="rgba(255, 255, 255, 0.67)" class="triangle-float1"></path><path d="M429.95,636.376C470.63,636.71,493.963,595.118,514.298,559.884C534.624,524.665,556.318,485.083,538.309,448.624C518.75,409.025,473.986,385.73,429.95,389.118C390.321,392.167,364.391,427.561,347.077,463.338C332.263,493.948,333.28,527.847,347.969,558.517C365.417,594.947,389.558,636.044,429.95,636.376" fill="rgba(255, 255, 255, 0.67)" class="triangle-float1"></path><path d="M56.82 531.39 a152.53 152.53 0 1 0 305.06 0 a152.53 152.53 0 1 0 -305.06 0z" fill="rgba(255, 255, 255, 0.67)" class="triangle-float3"></path><path d="M-37.4 166.13 a178.27 178.27 0 1 0 356.54 0 a178.27 178.27 0 1 0 -356.54 0z" fill="rgba(255, 255, 255, 0.67)" class="triangle-float2"></path><path d="M1408.389,301.326C1447.215,303.877,1486.889,285.831,1505.244,251.522C1522.815,218.68,1509.392,180.293,1490.229,148.353C1471.764,117.575,1444.256,91.417,1408.389,90.087C1370.364,88.677,1332.705,108.023,1315.318,141.869C1299.071,173.496,1313.404,209.386,1331.327,240.094C1349.053,270.463,1373.301,299.02,1408.389,301.326" fill="rgba(255, 255, 255, 0.67)" class="triangle-float1"></path><path d="M373.344,595.563C417.579,594.331,463.454,583.334,486.724,545.694C511.052,506.342,507.593,456.147,484.217,416.222C461.092,376.726,419.11,351.669,373.344,352.048C328.21,352.422,289.487,379.73,265.606,418.031C240.014,459.076,223.371,510.981,248.466,552.332C272.96,592.693,326.15,596.878,373.344,595.563" fill="rgba(255, 255, 255, 0.67)" class="triangle-float3"></path><path d="M452.52 436.96 a158.54 158.54 0 1 0 317.08 0 a158.54 158.54 0 1 0 -317.08 0z" fill="rgba(255, 255, 255, 0.67)" class="triangle-float1"></path><path d="M1521.881,778.897C1585.305,780.93,1646.441,745.356,1674.841,688.609C1700.932,636.475,1678.273,577.29,1647.586,527.722C1618.924,481.425,1576.332,441.462,1521.881,441.54C1467.54,441.618,1423.907,480.985,1396.798,528.081C1369.761,575.051,1360.824,630.819,1385.011,679.319C1411.998,733.434,1461.441,776.96,1521.881,778.897" fill="rgba(255, 255, 255, 0.67)" class="triangle-float2"></path><path d="M609.9 45.15 a156.58 156.58 0 1 0 313.16 0 a156.58 156.58 0 1 0 -313.16 0z" fill="rgba(255, 255, 255, 0.67)" class="triangle-float2"></path><path d="M1047.65,822.615C1105.028,819.861,1140.347,764.659,1165.132,712.837C1186.031,669.14,1185.845,620.98,1164.999,577.257C1140.181,525.204,1105.248,469.242,1047.65,466.43C986.888,463.463,937.378,511.133,908.62,564.74C881.531,615.237,881.673,674.696,908.867,725.136C937.621,778.47,987.129,825.519,1047.65,822.615" fill="rgba(255, 255, 255, 0.67)" class="triangle-float3"></path><path d="M103.63,490.689C148.645,491.139,186.566,463.188,211.642,425.802C240.731,382.434,267.845,328.909,242.919,283.022C217.314,235.884,157.263,225.94,103.63,226.957C52.169,227.933,-2.686,242.666,-26.802,288.137C-49.908,331.703,-27.402,382.217,-0.703,423.678C23.282,460.925,59.331,490.246,103.63,490.689" fill="rgba(255, 255, 255, 0.67)" class="triangle-float3"></path><path d="M489.079,420.303C508.749,420.447,526.915,408.675,535.758,391.104C543.855,375.016,537.627,356.92,528.911,341.158C519.804,324.689,507.873,307.651,489.079,306.688C469.008,305.66,451.086,319.021,441.49,336.679C432.313,353.565,434.063,373.727,443.568,390.43C453.187,407.334,469.631,420.161,489.079,420.303" fill="rgba(255, 255, 255, 0.67)" class="triangle-float2"></path></g><defs><mask id="SvgjsMask1020"><rect width="1440" height="560" fill="#ffffff"></rect></mask><style>
            @keyframes float1 {
                0%{transform: translate(0, 0)}
                50%{transform: translate(-10px, 0)}
                100%{transform: translate(0, 0)}
            }

            .triangle-float1 {
                animation: float1 5s infinite;
            }

            @keyframes float2 {
                0%{transform: translate(0, 0)}
                50%{transform: translate(-5px, -5px)}
                100%{transform: translate(0, 0)}
            }

            .triangle-float2 {
                animation: float2 4s infinite;
            }

            @keyframes float3 {
                0%{transform: translate(0, 0)}
                50%{transform: translate(0, -10px)}
                100%{transform: translate(0, 0)}
            }

            .triangle-float3 {
                animation: float3 6s infinite;
            }
        </style></defs></svg>